<svg width="185" height="133" viewBox="0 0 185 133" fill="none" xmlns="http://www.w3.org/2000/svg">
<path d="M2.9375 66V22.25H9.9375V66H2.9375ZM13.125 46.25V39.4375H17.3125C20.3542 39.4375 22 37.9583 22.25 35C22.25 34.75 22.25 34.5 22.25 34.25C21.9583 30.9583 20.3125 29.2292 17.3125 29.0625H13.125V22.25H17.875C25.4583 22.375 29.2708 26.3333 29.3125 34.125C29.3125 40.1667 27.3958 43.9375 23.5625 45.4375C21.9792 45.9792 20.0833 46.25 17.875 46.25C17.7917 46.25 16.2083 46.25 13.125 46.25ZM32.75 53.8125V33.25C32.75 31.0417 33.6875 28.7917 35.5625 26.5C38.0625 23.5 41.2292 21.9792 45.0625 21.9375V28.875C42.8958 28.9167 41.2708 30.0833 40.1875 32.375C39.8542 33.125 39.6875 33.75 39.6875 34.25V53.8125C39.6875 56.0625 40.8542 57.7292 43.1875 58.8125C43.8958 59.1458 44.5 59.3125 45 59.3125V66.3125C42.625 66.3125 40.25 65.4583 37.875 63.75C34.5 61.25 32.7917 57.9375 32.75 53.8125ZM48.4375 66.3125V59.3125C49.5208 59.3125 50.6458 58.8125 51.8125 57.8125C53.0625 56.6875 53.7083 55.3542 53.75 53.8125V34.25C53.75 33 53.2083 31.7917 52.125 30.625C51.0833 29.5 49.8542 28.9167 48.4375 28.875V21.9375C52.6458 21.9375 56.0208 23.75 58.5625 27.375C60.0208 29.4583 60.75 31.4167 60.75 33.25V53.8125C60.75 58.4375 58.6875 61.9792 54.5625 64.4375C52.3958 65.6875 50.3542 66.3125 48.4375 66.3125ZM65.75 66V22.25H72.75V66H65.75ZM75.9375 47.5625V41.3125H79.4375C83.0625 41.3125 85.0625 39.5833 85.4375 36.125C85.4792 35.75 85.5 35.3958 85.5 35.0625C85.5 31.5625 83.9167 29.5 80.75 28.875C80.1667 28.7917 79.5625 28.75 78.9375 28.75H75.9375V22.25H79.75C85.2917 22.375 89.0208 24.4375 90.9375 28.4375C91.7292 30.1042 92.125 32.0208 92.125 34.1875C92.0833 38.8125 90.6667 42.1667 87.875 44.25C90.0417 45.5 91.4167 47.7292 92 50.9375C92.0833 51.4792 92.1458 51.9792 92.1875 52.4375L93.25 66H86.75L85.8125 54.875C85.4792 51.375 84.5417 49.1667 83 48.25C82.0833 47.7917 80.9375 47.5625 79.5625 47.5625H75.9375ZM95.75 29.0625V22.25H122.812V29.0625H112.812V66H105.812V29.0625H95.75ZM126.438 66V22.25H149.188V29.125H133.438V40.75H143.312V47.75H133.438V59.0625H149.188V66H126.438ZM154.25 66V33.375H154.75L161.25 43.8125V66H154.25ZM154.25 26.75V22.25H160.062L182.062 57.5625V66H178.688L154.25 26.75ZM175.062 40.5V22.25H182.062V50.9375H181.562L175.062 40.5Z" fill="white"/>
<path d="M13.7494 109.362C13.3094 109.699 12.7521 109.934 12.0774 110.066C11.4028 110.198 10.6841 110.264 9.92144 110.264C8.99744 110.264 8.1321 110.11 7.32544 109.802C6.51877 109.479 5.81477 108.995 5.21344 108.35C4.6121 107.705 4.13544 106.883 3.78344 105.886C3.43144 104.874 3.25544 103.679 3.25544 102.3C3.25544 100.863 3.4461 99.6453 3.82744 98.648C4.22344 97.636 4.73677 96.8147 5.36744 96.184C6.01277 95.5387 6.73144 95.0693 7.52344 94.776C8.31544 94.4827 9.1221 94.336 9.94344 94.336C10.8234 94.336 11.5421 94.3873 12.0994 94.49C12.6568 94.578 13.1334 94.7027 13.5294 94.864L13.0894 96.47C12.3854 96.1327 11.3808 95.964 10.0754 95.964C9.4741 95.964 8.8801 96.074 8.29344 96.294C7.70677 96.514 7.17877 96.8733 6.70944 97.372C6.25477 97.8707 5.8881 98.5233 5.60944 99.33C5.33077 100.137 5.19144 101.127 5.19144 102.3C5.19144 103.356 5.32344 104.28 5.58744 105.072C5.85144 105.864 6.21077 106.524 6.66544 107.052C7.13477 107.58 7.67744 107.976 8.29344 108.24C8.9241 108.504 9.6061 108.636 10.3394 108.636C10.9994 108.636 11.5714 108.57 12.0554 108.438C12.5541 108.306 12.9721 108.137 13.3094 107.932L13.7494 109.362ZM23.1648 105.732H17.4888L15.9488 110H14.1448L19.9748 94.358H20.8108L26.6628 110H24.7488L23.1648 105.732ZM18.0828 104.148H22.6148L20.8988 99.462L20.3488 97.13H20.3268L19.7767 99.506L18.0828 104.148ZM37.9259 102.938H30.5339V110H28.7079V94.6H30.5339V101.31H37.9259V94.6H39.7519V110H37.9259V102.938ZM46.3491 102.872H45.3151V110H43.4891V94.6H45.3151V101.772L46.3051 101.464L51.4751 94.6H53.5871L48.4391 101.222L47.5151 101.948L48.6371 102.828L54.2691 110H51.9591L46.3491 102.872ZM66.646 96.228H61.85V110H60.024V96.228H55.228V94.6H66.646V96.228ZM66.4855 102.85H71.8095V104.478H66.4855V102.85ZM83.9172 96.228H76.8112V110H74.9852V94.6H85.7432V110H83.9172V96.228ZM89.4872 94.6H97.8692V96.228H91.3132V101.266H97.3192V102.894H91.3132V108.372H97.9792V110H89.4872V94.6ZM111.226 96.228H106.43V110H104.604V96.228H99.8081V94.6H111.226V96.228ZM113.485 94.6H121.867V96.228H115.311V101.266H121.317V102.894H115.311V108.372H121.977V110H113.485V94.6ZM125.28 94.754C125.837 94.622 126.439 94.534 127.084 94.49C127.729 94.446 128.367 94.424 128.998 94.424C129.673 94.424 130.355 94.49 131.044 94.622C131.748 94.754 132.386 94.996 132.958 95.348C133.53 95.7 133.992 96.184 134.344 96.8C134.711 97.416 134.894 98.2007 134.894 99.154C134.894 100.093 134.725 100.885 134.388 101.53C134.051 102.175 133.603 102.703 133.046 103.114C132.489 103.51 131.851 103.796 131.132 103.972C130.413 104.148 129.673 104.236 128.91 104.236C128.837 104.236 128.712 104.236 128.536 104.236C128.375 104.236 128.199 104.236 128.008 104.236C127.832 104.221 127.656 104.207 127.48 104.192C127.304 104.177 127.179 104.163 127.106 104.148V110H125.28V94.754ZM129.042 96.008C128.661 96.008 128.294 96.0153 127.942 96.03C127.59 96.0447 127.311 96.0813 127.106 96.14V102.52C127.179 102.549 127.297 102.571 127.458 102.586C127.619 102.586 127.788 102.593 127.964 102.608C128.14 102.608 128.309 102.608 128.47 102.608C128.631 102.608 128.749 102.608 128.822 102.608C129.321 102.608 129.812 102.564 130.296 102.476C130.795 102.373 131.242 102.197 131.638 101.948C132.034 101.699 132.349 101.347 132.584 100.892C132.833 100.437 132.958 99.858 132.958 99.154C132.958 98.5527 132.841 98.054 132.606 97.658C132.386 97.2473 132.085 96.9247 131.704 96.69C131.337 96.4407 130.919 96.2647 130.45 96.162C129.981 96.0593 129.511 96.008 129.042 96.008ZM137.569 94.6H145.929V96.228H139.395V100.848C139.645 100.804 139.953 100.76 140.319 100.716C140.686 100.672 141.038 100.65 141.375 100.65C142.123 100.65 142.835 100.723 143.509 100.87C144.184 101.002 144.778 101.237 145.291 101.574C145.805 101.911 146.208 102.373 146.501 102.96C146.809 103.532 146.963 104.258 146.963 105.138C146.963 106.018 146.809 106.781 146.501 107.426C146.193 108.057 145.783 108.577 145.269 108.988C144.756 109.384 144.155 109.685 143.465 109.89C142.791 110.081 142.079 110.176 141.331 110.176C141.082 110.176 140.796 110.169 140.473 110.154C140.165 110.154 139.835 110.139 139.483 110.11C139.146 110.081 138.809 110.044 138.471 110C138.149 109.971 137.848 109.919 137.569 109.846V94.6ZM141.551 108.592C142.021 108.592 142.468 108.526 142.893 108.394C143.319 108.262 143.685 108.071 143.993 107.822C144.316 107.558 144.565 107.228 144.741 106.832C144.932 106.436 145.027 105.974 145.027 105.446C145.027 104.771 144.917 104.229 144.697 103.818C144.492 103.393 144.213 103.063 143.861 102.828C143.509 102.593 143.099 102.439 142.629 102.366C142.175 102.278 141.698 102.234 141.199 102.234C141.067 102.234 140.913 102.241 140.737 102.256C140.561 102.271 140.385 102.285 140.209 102.3C140.033 102.315 139.872 102.337 139.725 102.366C139.579 102.381 139.469 102.395 139.395 102.41V108.46C139.498 108.489 139.63 108.511 139.791 108.526C139.967 108.541 140.151 108.555 140.341 108.57C140.547 108.585 140.752 108.592 140.957 108.592C141.163 108.592 141.361 108.592 141.551 108.592ZM153.999 102.718L154.571 104.676H154.681L155.121 102.652L158.069 94.6H159.939L156.045 104.61C155.649 105.651 155.297 106.524 154.989 107.228C154.696 107.917 154.395 108.482 154.087 108.922C153.779 109.347 153.449 109.655 153.097 109.846C152.745 110.022 152.312 110.11 151.799 110.11C151.315 110.11 150.926 110.073 150.633 110C150.354 109.912 150.09 109.787 149.841 109.626L150.391 108.108C150.684 108.269 150.956 108.372 151.205 108.416C151.454 108.46 151.682 108.482 151.887 108.482C152.298 108.482 152.642 108.277 152.921 107.866C153.2 107.441 153.442 106.817 153.647 105.996L147.949 94.6H150.061L153.999 102.718ZM161.825 94.754C162.382 94.622 162.984 94.534 163.629 94.49C164.274 94.446 164.912 94.424 165.543 94.424C166.218 94.424 166.9 94.49 167.589 94.622C168.293 94.754 168.931 94.996 169.503 95.348C170.075 95.7 170.537 96.184 170.889 96.8C171.256 97.416 171.439 98.2007 171.439 99.154C171.439 100.093 171.27 100.885 170.933 101.53C170.596 102.175 170.148 102.703 169.591 103.114C169.034 103.51 168.396 103.796 167.677 103.972C166.958 104.148 166.218 104.236 165.455 104.236C165.382 104.236 165.257 104.236 165.081 104.236C164.92 104.236 164.744 104.236 164.553 104.236C164.377 104.221 164.201 104.207 164.025 104.192C163.849 104.177 163.724 104.163 163.651 104.148V110H161.825V94.754ZM165.587 96.008C165.206 96.008 164.839 96.0153 164.487 96.03C164.135 96.0447 163.856 96.0813 163.651 96.14V102.52C163.724 102.549 163.842 102.571 164.003 102.586C164.164 102.586 164.333 102.593 164.509 102.608C164.685 102.608 164.854 102.608 165.015 102.608C165.176 102.608 165.294 102.608 165.367 102.608C165.866 102.608 166.357 102.564 166.841 102.476C167.34 102.373 167.787 102.197 168.183 101.948C168.579 101.699 168.894 101.347 169.129 100.892C169.378 100.437 169.503 99.858 169.503 99.154C169.503 98.5527 169.386 98.054 169.151 97.658C168.931 97.2473 168.63 96.9247 168.249 96.69C167.882 96.4407 167.464 96.2647 166.995 96.162C166.526 96.0593 166.056 96.008 165.587 96.008ZM182.364 96.228H175.94V110H174.114V94.6H182.364V96.228Z" fill="white"/>
<line x1="3" y1="81" x2="182" y2="81" stroke="white" stroke-width="2"/>
</svg>
